<?xml version="1.0" encoding="UTF-8"?><svg id="a" xmlns="http://www.w3.org/2000/svg" xmlns:xlink="http://www.w3.org/1999/xlink" viewBox="0 0 68 72"><defs><style>.d{fill:#fff;}.e{fill:url(#c);}.f{fill:url(#b);}</style><linearGradient id="b" x1="39.44" y1="1.4" x2="26.6" y2="74.24" gradientUnits="userSpaceOnUse"><stop offset="0" stop-color="#04a89a"/><stop offset=".07" stop-color="#039d92"/><stop offset=".35" stop-color="#037573"/><stop offset=".61" stop-color="#03585e"/><stop offset=".84" stop-color="#034750"/><stop offset="1" stop-color="#03414c"/><stop offset="1" stop-color="#06424e"/><stop offset="1" stop-color="#1b4e5c"/><stop offset="1" stop-color="#2c5767"/><stop offset="1" stop-color="#385d6f"/><stop offset="1" stop-color="#3f6173"/><stop offset="1" stop-color="#416275"/><stop offset="1" stop-color="#445f73"/></linearGradient><linearGradient id="c" x1="17.89" y1="18.94" x2="46.85" y2="47.9" gradientUnits="userSpaceOnUse"><stop offset="0" stop-color="#04a89a"/><stop offset=".13" stop-color="#03978d"/><stop offset=".52" stop-color="#03686a"/><stop offset=".83" stop-color="#034b54"/><stop offset="1" stop-color="#03414c"/><stop offset="1" stop-color="#06424e"/><stop offset="1" stop-color="#1b4e5c"/><stop offset="1" stop-color="#2c5767"/><stop offset="1" stop-color="#385d6f"/><stop offset="1" stop-color="#3f6173"/><stop offset="1" stop-color="#416275"/><stop offset="1" stop-color="#445f73"/></linearGradient></defs><path class="f" d="M13.2,7.7c-2.48,1.86-4.03,3.67-4.88,4.66-1.99,2.35-3.18,4.44-3.75,5.53-1.63,3.09-2.28,5.66-2.63,7.08-.89,3.62-.93,6.46-.94,7.25,0,1.65.12,4,.75,6.74.54,2.35,1.25,4.12,1.6,4.92.64,1.5,1.25,2.58,1.41,2.85.46.92,1.09,1.96,1.97,3.02.31.38.63.72.94,1.04.45.42.56.6.56.69v4.32c0,.42-.02.59-.02,1.01,0,.09,0,.17,0,.24,0,.35.02.6.02.66,0,.22.01.64,0,1.55v2.59c0,.39.01.39.02.71,0,.54,0,.91-.02,1.19-.02.62,0,.82,0,1.73,0,1.03-.02.93-.01,1.61,0,.48.01.75.01,1.49,0,.35,0,.6,0,.69,0,.3,0,.81,0,1.73l.75-.35c1.85-.92,3.33-1.71,4.32-2.25.96-.52,2.08-1.15,4.32-2.42,1.72-.97,2.68-1.47,3.75-2.07.32-.18.52-.29.94-.52.71-.39,1.01-.54,1.2-.64.05-.03.11-.05.11-.05.4-.19.75-.35.75-.35,0,0,0,0,0,0h0c.31-.28.57-.34.75-.35.26,0,1,.24.75.17,0,0,.56.17.56.17,0,0,0,0,0,0h0c.5.06,1,.12,1.5.17,1.32.19,1.77.26,1.77.26,0,0,0,0,0,0,0,0,0,0,0,0,3.32.53,4.79.43,4.79.43,2.91-.2,4.37-.3,6.76-.86,2.01-.47,6.29-1.51,10.79-4.23,7.32-4.43,10.81-10.65,12.2-13.65,1.19-2.55,3.6-8.7,2.44-16.58-.44-2.98-1.94-9.97-8.07-16.41-2.32-2.44-9.04-8.72-19.9-10.19C29.81.1,22.9,2.79,20.52,3.72c-1.45.57-4.26,1.69-7.32,3.97Z"/><path class="d" d="M10.85,19.35c-1.08,1.79-1.88,3.8-1.88,3.8-.71,1.8-1.12,3.45-1.36,4.75,0,0-.24,1.35-.33,2.68-.28,4.5,1.31,8.98,1.31,8.98.63,1.53,1.3,2.8,1.88,3.8.52.9,1.1,1.9,2.06,3.11.7.88,1.36,1.57,1.88,2.07.15.16.18.27.19.35,0,.02,0,.03,0,.17,0,.09,0,.12,0,.19,0,.07,0,.12,0,.16v9.85c0,.17,0,.35,0,.52,0,.58-.06.64,0,.69.15.12.6-.16,1.5-.69,1.03-.6.59-.32,1.5-.86.5-.3.65-.39,1.69-1.04,1.37-.85,1.16-.71,1.69-1.04.56-.35,1.13-.69,1.69-1.04.9-.55,1.26-.78,1.69-.69.2.04.2.11.75.35,0,0,.45.2.94.35.19.06.31.08.47.12.66.16,1.05.3,1.41.4.63.18,1.14.25,1.88.35,1.34.18,2.58.19,3.94.17,1.98-.03,3.8-.13,4.32-.17,3.11-.28,15.77-4.04,20.65-15.2,3.29-7.54,1.35-14.27.75-16.24-.61-1.99-2.7-8.48-9.57-13.3-1-.7-10.9-7.4-23.27-4.15,0,0-10.42,2.74-15.77,11.57Z"/><path class="e" d="M25.9,13.54c-3.63,1.35-6.08,3.4-7.53,4.92-1.68,1.76-2.55,3.37-3.2,4.58-.86,1.61-2.1,4-2.45,7.3-.51,4.87,1.21,9.17,2.63,11.11,1.36,1.86,2.06,2.76,2.06,2.76,1.67,2.05,2.06,3.16,2.06,3.8,0,.03,0,.08,0,1.04v3.45c.79-.47,1.19-.71,1.5-.86.64-.31,1.17-.48,1.31-.52.82-.25,1.47-.29,2.25-.35.75-.05,1.41-.09,2.25,0,1.35.15,1.31.45,3,.69.95.14,1.81.17,2.06.17.26,0,.57,0,.94,0,.64-.02,3.46-.11,5.07-.35,1.57-.23,5.25-1.07,8.82-3.63,3.1-2.22,4.66-4.69,5.55-6.13,1.94-3.15,2.52-5.86,2.63-6.45.61-3.05.27-5.41.19-5.94-.45-2.85-1.55-4.86-2.26-6.11-.66-1.17-1.99-3.48-4.71-5.77-2.76-2.33-5.49-3.4-6.4-3.73-.97-.36-3.91-1.36-7.9-1.36-4.12,0-7.13,1.07-7.9,1.36Z"/></svg>